<?xml version="1.0" standalone="no"?><!DOCTYPE svg PUBLIC "-//W3C//DTD SVG 1.1//EN" "http://www.w3.org/Graphics/SVG/1.1/DTD/svg11.dtd"><svg t="1521966425483" class="icon" style="" viewBox="0 0 1024 1024" version="1.1" xmlns="http://www.w3.org/2000/svg" p-id="19766" xmlns:xlink="http://www.w3.org/1999/xlink" width="128" height="128"><defs><style type="text/css"></style></defs><path d="M319.146667 759.466667C319.146667 759.466667 319.146667 759.466667 319.146667 759.466667c-18.773333 0-30.72-1.706667-30.72-1.706667-8.533333-1.706667-15.36-6.826667-15.36-15.36-8.533333-134.826667 25.6-244.053333 100.693333-327.68 134.826667-146.773333 351.573333-151.893333 360.106667-151.893333 5.12 0 8.533333 1.706667 11.946667 5.12s5.12 8.533333 5.12 11.946667C744.106667 725.333333 418.133333 759.466667 319.146667 759.466667zM307.2 725.333333c71.68 1.706667 394.24-10.24 409.6-426.666667-52.906667 5.12-215.04 27.306667-317.44 139.946667C332.8 512 302.08 607.573333 307.2 725.333333z" p-id="19767" fill="#888888"></path><path d="M290.133333 759.466667c-3.413333 0-6.826667-1.706667-8.533333-3.413333-8.533333-5.12-10.24-15.36-5.12-23.893333 11.946667-18.773333 291.84-445.44 455.68-467.626667 8.533333-1.706667 18.773333 5.12 18.773333 15.36 1.706667 8.533333-5.12 18.773333-15.36 18.773333C614.4 314.026667 384 631.466667 305.493333 750.933333 302.08 756.053333 296.96 759.466667 290.133333 759.466667z" p-id="19768" fill="#888888"></path><path d="M477.866667 503.466667c-6.826667 0-13.653333 13.653333-15.36 6.826667l-51.2-119.466667c-3.413333-8.533333 0-1.706667 8.533333-5.12 8.533333-3.413333 18.773333-17.066667 22.186667-8.533333l51.2 119.466667c-20.48-46.08-22.186667 10.24-8.533333 5.12C482.986667 501.76 481.28 503.466667 477.866667 503.466667z" p-id="19769" fill="#888888"></path><path d="M716.8 469.333333c-1.706667 0-1.706667 0-3.413333 0l-170.666667-34.133333c-8.533333-1.706667-15.36-10.24-13.653333-20.48 1.706667-8.533333 10.24-15.36 20.48-13.653333l170.666667 34.133333c8.533333 1.706667-1.706667 10.24-3.413333 20.48C715.093333 462.506667 725.333333 469.333333 716.8 469.333333z" p-id="19770" fill="#888888"></path><path d="M597.333333 657.066667c-1.706667 0-5.12 17.066667-6.826667 15.36-42.666667-15.36-179.2-64.853333-187.733333-68.266667-8.533333-3.413333-11.946667-13.653333-6.826667-22.186667 3.413333-8.533333 13.653333-11.946667 22.186667-8.533333 8.533333 3.413333 119.466667 42.666667 186.026667 68.266667-30.72-11.946667-8.533333 27.306667-6.826667 22.186667C593.92 669.013333 605.866667 657.066667 597.333333 657.066667z" p-id="19771" fill="#888888"></path></svg>