<?xml version="1.0" standalone="no"?><!DOCTYPE svg PUBLIC "-//W3C//DTD SVG 1.1//EN" "http://www.w3.org/Graphics/SVG/1.1/DTD/svg11.dtd"><svg t="1521977118588" class="icon" style="" viewBox="0 0 1024 1024" version="1.1" xmlns="http://www.w3.org/2000/svg" p-id="7444" xmlns:xlink="http://www.w3.org/1999/xlink" width="128" height="128"><defs><style type="text/css"></style></defs><path d="M18.618182 528.290909l256-244.363636L535.272727 525.963636l-516.654545 2.327273z m258.327273-183.854545l-146.618182 139.636363 293.236363-2.327272-146.618181-137.309091z" p-id="7445" fill="#ffffff"></path><path d="M495.709091 544.581818l-4.654546-514.327273 246.69091 256-242.036364 258.327273zM535.272727 139.636364l2.327273 293.236363 137.309091-148.945454L535.272727 139.636364z" p-id="7446" fill="#ffffff"></path><path d="M530.618182 993.745455l-246.690909-256 239.709091-260.654546 6.981818 516.654546z m-186.181818-253.672728l139.636363 144.290909-2.327272-293.236363-137.309091 148.945454z" p-id="7447" fill="#ffffff"></path><path d="M747.054545 740.072727L488.727273 498.036364l516.654545-2.327273-258.327273 244.363636z m-146.618181-200.145454l146.618181 137.309091 146.618182-139.636364-293.236363 2.327273z" p-id="7448" fill="#ffffff"></path></svg>